MerriweatherSans-LightItalic.ufo
<glyph name="dollar" format="1">
  <advance width="1204"/>
  <unicode hex="0024"/>
  <outline>
    <contour>
      <point x="692" y="1523" type="line"/>
      <point x="692" y="1523"/>
      <point x="811" y="1521"/>
      <point x="829" y="1521" type="curve"/>
      <point x="862" y="1729" type="line"/>
      <point x="725" y="1729" type="line"/>
    </contour>
    <contour>
      <point x="442" y="-7" type="curve"/>
      <point x="406" y="-230" type="line"/>
      <point x="543" y="-230" type="line"/>
      <point x="580" y="-6" type="line"/>
      <point x="562" y="-6"/>
      <point x="442" y="-7"/>
    </contour>
    <contour>
      <point x="128" y="68" type="line"/>
      <point x="173" y="31"/>
      <point x="333" y="-21"/>
      <point x="503" y="-21" type="curve" smooth="yes"/>
      <point x="800" y="-21"/>
      <point x="1025" y="129"/>
      <point x="1020" y="411" type="curve" smooth="yes"/>
      <point x="1016" y="619"/>
      <point x="852" y="730"/>
      <point x="710" y="823" type="curve"/>
      <point x="548" y="930"/>
      <point x="431" y="1008"/>
      <point x="437" y="1189" type="curve" smooth="yes"/>
      <point x="442" y="1389"/>
      <point x="631" y="1430"/>
      <point x="754" y="1430" type="curve" smooth="yes"/>
      <point x="862" y="1430"/>
      <point x="985" y="1402"/>
      <point x="1042" y="1346" type="curve"/>
      <point x="1090" y="1461" type="line"/>
      <point x="1042" y="1495"/>
      <point x="942" y="1545"/>
      <point x="744" y="1545" type="curve" smooth="yes"/>
      <point x="481" y="1545"/>
      <point x="281" y="1402"/>
      <point x="286" y="1150" type="curve" smooth="yes"/>
      <point x="290" y="920"/>
      <point x="473" y="799"/>
      <point x="621" y="703" type="curve"/>
      <point x="777" y="602"/>
      <point x="864" y="513"/>
      <point x="864" y="374" type="curve" smooth="yes"/>
      <point x="864" y="181"/>
      <point x="690" y="97"/>
      <point x="506" y="97" type="curve" smooth="yes"/>
      <point x="361" y="97"/>
      <point x="207" y="151"/>
      <point x="170" y="191" type="curve"/>
    </contour>
  </outline>
</glyph>
<glyph name="percent" format="1">
  <advance width="1911"/>
  <unicode hex="0025"/>
  <outline>
    <contour>
      <point x="414" y="0" type="line"/>
      <point x="537" y="0" type="line"/>
      <point x="1484" y="1530" type="line"/>
      <point x="1361" y="1530" type="line"/>
    </contour>
    <contour>
      <point x="482" y="745" type="curve" smooth="yes"/>
      <point x="734" y="745"/>
      <point x="891" y="966"/>
      <point x="891" y="1185" type="curve" smooth="yes"/>
      <point x="891" y="1357"/>
      <point x="809" y="1480"/>
      <point x="611" y="1480" type="curve" smooth="yes"/>
      <point x="372" y="1480"/>
      <point x="201" y="1267"/>
      <point x="201" y="1055" type="curve" smooth="yes"/>
      <point x="201" y="879"/>
      <point x="299" y="745"/>
    </contour>
    <contour>
      <point x="504" y="839" type="curve" smooth="yes"/>
      <point x="389" y="839"/>
      <point x="324" y="929"/>
      <point x="324" y="1056" type="curve" smooth="yes"/>
      <point x="324" y="1197"/>
      <point x="422" y="1386"/>
      <point x="590" y="1386" type="curve" smooth="yes"/>
      <point x="703" y="1386"/>
      <point x="761" y="1304"/>
      <point x="761" y="1179" type="curve" smooth="yes"/>
      <point x="761" y="1040"/>
      <point x="674" y="839"/>
    </contour>
    <contour>
      <point x="1037" y="374" type="curve" smooth="yes"/>
      <point x="1037" y="198"/>
      <point x="1135" y="64"/>
      <point x="1318" y="64" type="curve" smooth="yes"/>
      <point x="1570" y="64"/>
      <point x="1727" y="285"/>
      <point x="1727" y="504" type="curve" smooth="yes"/>
      <point x="1727" y="676"/>
      <point x="1645" y="799"/>
      <point x="1447" y="799" type="curve" smooth="yes"/>
      <point x="1208" y="799"/>
      <point x="1037" y="586"/>
    </contour>
    <contour>
      <point x="1160" y="375" type="curve" smooth="yes"/>
      <point x="1160" y="516"/>
      <point x="1258" y="705"/>
      <point x="1426" y="705" type="curve" smooth="yes"/>
      <point x="1539" y="705"/>
      <point x="1597" y="623"/>
      <point x="1597" y="498" type="curve" smooth="yes"/>
      <point x="1597" y="359"/>
      <point x="1510" y="158"/>
      <point x="1340" y="158" type="curve" smooth="yes"/>
      <point x="1225" y="158"/>
      <point x="1160" y="248"/>
    </contour>
  </outline>
</glyph>
<glyph name="plus" format="1">
  <advance width="1366"/>
  <unicode hex="002B"/>
  <outline>
    <contour>
      <point x="572" y="295" type="line"/>
      <point x="710" y="295" type="line"/>
      <point x="739" y="536" type="line"/>
      <point x="742" y="577"/>
      <point x="753" y="677"/>
      <point x="754" y="717" type="curve"/>
      <point x="885" y="712" type="line"/>
      <point x="1141" y="712" type="line"/>
      <point x="1155" y="833" type="line"/>
      <point x="900" y="833" type="line"/>
      <point x="765" y="825" type="line"/>
      <point x="795" y="1005" type="line"/>
      <point x="821" y="1235" type="line"/>
      <point x="685" y="1235" type="line"/>
      <point x="658" y="1005" type="line"/>
      <point x="641" y="824" type="line"/>
      <point x="483" y="833" type="line"/>
      <point x="257" y="833" type="line"/>
      <point x="243" y="712" type="line"/>
      <point x="468" y="712" type="line"/>
      <point x="629" y="717" type="line"/>
      <point x="601" y="536" type="line"/>
    </contour>
  </outline>
</glyph>
<glyph name="zero" format="1">
  <advance width="1278"/>
  <unicode hex="0030"/>
  <outline>
    <contour>
      <point x="111" y="453" type="curve" smooth="yes"/>
      <point x="111" y="208"/>
      <point x="237" y="-16"/>
      <point x="539" y="-16" type="curve" smooth="yes"/>
      <point x="894" y="-16"/>
      <point x="1157" y="312"/>
      <point x="1157" y="688" type="curve" smooth="yes"/>
      <point x="1157" y="955"/>
      <point x="1038" y="1156"/>
      <point x="734" y="1156" type="curve" smooth="yes"/>
      <point x="396" y="1156"/>
      <point x="111" y="856"/>
    </contour>
    <contour>
      <point x="268" y="464" type="curve" smooth="yes"/>
      <point x="268" y="728"/>
      <point x="408" y="1054"/>
      <point x="721" y="1050" type="curve" smooth="yes"/>
      <point x="923" y="1047"/>
      <point x="999" y="897"/>
      <point x="999" y="675" type="curve" smooth="yes"/>
      <point x="999" y="392"/>
      <point x="851" y="91"/>
      <point x="562" y="91" type="curve" smooth="yes"/>
      <point x="358" y="91"/>
      <point x="268" y="265"/>
    </contour>
  </outline>
</glyph>
<glyph name="G" format="1">
  <advance width="1340"/>
  <unicode hex="0047"/>
  <outline>
    <contour>
      <point x="112" y="627" type="curve" smooth="yes"/>
      <point x="117" y="317"/>
      <point x="256" y="-17"/>
      <point x="616" y="-17" type="curve" smooth="yes"/>
      <point x="773" y="-17"/>
      <point x="913" y="31"/>
      <point x="1013" y="61" type="curve" smooth="yes"/>
      <point x="1067" y="77"/>
      <point x="1111" y="90"/>
      <point x="1150" y="94" type="curve"/>
      <point x="1232" y="729" type="line"/>
      <point x="802" y="729" type="line"/>
      <point x="787" y="608" type="line"/>
      <point x="1068" y="607" type="line"/>
      <point x="1010" y="151" type="line"/>
      <point x="1029" y="192" type="line"/>
      <point x="913" y="147"/>
      <point x="762" y="101"/>
      <point x="643" y="101" type="curve" smooth="yes"/>
      <point x="366" y="101"/>
      <point x="267" y="378"/>
      <point x="265" y="644" type="curve" smooth="yes"/>
      <point x="261" y="1015"/>
      <point x="452" y="1424"/>
      <point x="843" y="1424" type="curve" smooth="yes"/>
      <point x="1025" y="1424"/>
      <point x="1140" y="1377"/>
      <point x="1199" y="1342" type="curve"/>
      <point x="1247" y="1479" type="line"/>
      <point x="1208" y="1491" type="line"/>
      <point x="1141" y="1512"/>
      <point x="1030" y="1546"/>
      <point x="845" y="1546" type="curve" smooth="yes"/>
      <point x="431" y="1546"/>
      <point x="102" y="1176"/>
    </contour>
    <contour>
      <point x="658" y="-170" type="move" name="btm"/>
    </contour>
    <contour>
      <point x="841" y="1700" type="move" name="top"/>
    </contour>
  </outline>
</glyph>
<glyph name="L" format="1">
  <advance width="978"/>
  <unicode hex="004C"/>
  <outline>
    <contour>
      <point x="121" y="0" type="line"/>
      <point x="864" y="0" type="line"/>
      <point x="880" y="130" type="line"/>
      <point x="287" y="126" type="line"/>
      <point x="464" y="1530" type="line"/>
      <point x="314" y="1530" type="line"/>
    </contour>
    <contour>
      <point x="542" y="-168" type="move" name="btm"/>
    </contour>
    <contour>
      <point x="432" y="1702" type="move" name="top"/>
    </contour>
  </outline>
</glyph>
<glyph name="N" format="1">
  <advance width="1402"/>
  <unicode hex="004E"/>
  <outline>
    <contour>
      <point x="121" y="0" type="line"/>
      <point x="262" y="0" type="line"/>
      <point x="396" y="1073" type="line"/>
      <point x="425" y="1361" type="line"/>
      <point x="497" y="1122" type="line"/>
      <point x="991" y="0" type="line"/>
      <point x="1140" y="0" type="line"/>
      <point x="1333" y="1530" type="line"/>
      <point x="1190" y="1530" type="line"/>
      <point x="1056" y="434" type="line"/>
      <point x="1035" y="196" type="line"/>
      <point x="963" y="403" type="line"/>
      <point x="472" y="1530" type="line"/>
      <point x="314" y="1530" type="line"/>
    </contour>
    <contour>
      <point x="644" y="-170" type="move" name="btm"/>
    </contour>
    <contour>
      <point x="855" y="1700" type="move" name="top"/>
    </contour>
  </outline>
</glyph>
<glyph name="S" format="1">
  <advance width="1044"/>
  <unicode hex="0053"/>
  <outline>
    <contour>
      <point x="29" y="73" type="line"/>
      <point x="74" y="36"/>
      <point x="234" y="-16"/>
      <point x="404" y="-16" type="curve" smooth="yes"/>
      <point x="701" y="-16"/>
      <point x="927" y="129"/>
      <point x="922" y="411" type="curve" smooth="yes"/>
      <point x="918" y="619"/>
      <point x="753" y="730"/>
      <point x="611" y="823" type="curve" smooth="yes"/>
      <point x="449" y="930"/>
      <point x="333" y="1008"/>
      <point x="338" y="1190" type="curve" smooth="yes"/>
      <point x="344" y="1391"/>
      <point x="532" y="1431"/>
      <point x="655" y="1431" type="curve" smooth="yes"/>
      <point x="763" y="1431"/>
      <point x="886" y="1403"/>
      <point x="943" y="1346" type="curve"/>
      <point x="991" y="1462" type="line"/>
      <point x="943" y="1496"/>
      <point x="843" y="1547"/>
      <point x="645" y="1547" type="curve" smooth="yes"/>
      <point x="382" y="1547"/>
      <point x="182" y="1402"/>
      <point x="187" y="1151" type="curve" smooth="yes"/>
      <point x="191" y="921"/>
      <point x="374" y="799"/>
      <point x="522" y="703" type="curve" smooth="yes"/>
      <point x="678" y="602"/>
      <point x="765" y="513"/>
      <point x="765" y="374" type="curve" smooth="yes"/>
      <point x="765" y="181"/>
      <point x="591" y="102"/>
      <point x="407" y="102" type="curve" smooth="yes"/>
      <point x="262" y="102"/>
      <point x="109" y="156"/>
      <point x="71" y="196" type="curve"/>
    </contour>
    <contour>
      <point x="416" y="-170" type="move" name="btm"/>
    </contour>
    <contour>
      <point x="679" y="1700" type="move" name="top"/>
    </contour>
  </outline>
</glyph>
<glyph name="T" format="1">
  <advance width="1122"/>
  <unicode hex="0054"/>
  <outline>
    <contour>
      <point x="410" y="0" type="line"/>
      <point x="560" y="0" type="line"/>
      <point x="739" y="1419" type="line"/>
      <point x="1182" y="1410" type="line"/>
      <point x="1199" y="1530" type="line"/>
      <point x="155" y="1530" type="line"/>
      <point x="138" y="1410" type="line"/>
      <point x="589" y="1419" type="line"/>
    </contour>
    <contour>
      <point x="466" y="-170" type="move" name="btm"/>
    </contour>
    <contour>
      <point x="725" y="1700" type="move" name="top"/>
    </contour>
  </outline>
</glyph>
<glyph name="b" format="1">
  <advance width="1159"/>
  <unicode hex="0062"/>
  <outline>
    <contour>
      <point x="95" y="2" type="line"/>
      <point x="249" y="49" type="line"/>
      <point x="351" y="809" type="line"/>
      <point x="358" y="923" type="line"/>
      <point x="396" y="1147" type="line"/>
      <point x="454" y="1637" type="line"/>
      <point x="313" y="1637" type="line"/>
    </contour>
    <contour>
      <point x="419" y="-16" type="curve" smooth="yes"/>
      <point x="858" y="-16"/>
      <point x="1060" y="410"/>
      <point x="1060" y="723" type="curve"/>
      <point x="1060" y="981"/>
      <point x="959" y="1156"/>
      <point x="742" y="1156" type="curve" smooth="yes"/>
      <point x="514" y="1156"/>
      <point x="337" y="943"/>
      <point x="306" y="837" type="curve"/>
      <point x="324" y="742" type="line"/>
      <point x="368" y="835"/>
      <point x="528" y="1040"/>
      <point x="716" y="1040" type="curve" smooth="yes"/>
      <point x="838" y="1040"/>
      <point x="906" y="930"/>
      <point x="906" y="706" type="curve" smooth="yes"/>
      <point x="906" y="449"/>
      <point x="755" y="94"/>
      <point x="443" y="94" type="curve" smooth="yes"/>
      <point x="353" y="94"/>
      <point x="253" y="121"/>
      <point x="206" y="160" type="curve"/>
      <point x="149" y="40" type="line"/>
      <point x="205" y="13"/>
      <point x="328" y="-16"/>
    </contour>
    <contour>
      <point x="814" y="1258" type="move" name="top"/>
    </contour>
  </outline>
</glyph>
<glyph name="d" format="1">
  <advance width="1149"/>
  <unicode hex="0064"/>
  <outline>
    <contour>
      <point x="758" y="0" type="line"/>
      <point x="890" y="0" type="line"/>
      <point x="1114" y="1637" type="line"/>
      <point x="966" y="1637" type="line"/>
      <point x="788" y="341" type="line"/>
      <point x="780" y="224" type="line"/>
    </contour>
    <contour>
      <point x="397" y="-16" type="curve" smooth="yes"/>
      <point x="625" y="-16"/>
      <point x="802" y="204"/>
      <point x="832" y="312" type="curve"/>
      <point x="815" y="407" type="line"/>
      <point x="771" y="312"/>
      <point x="611" y="100"/>
      <point x="423" y="100" type="curve" smooth="yes"/>
      <point x="301" y="100"/>
      <point x="233" y="211"/>
      <point x="233" y="434" type="curve" smooth="yes"/>
      <point x="233" y="690"/>
      <point x="385" y="1047"/>
      <point x="696" y="1047" type="curve" smooth="yes"/>
      <point x="787" y="1047"/>
      <point x="888" y="1018"/>
      <point x="935" y="979" type="curve"/>
      <point x="993" y="1099" type="line"/>
      <point x="936" y="1125"/>
      <point x="813" y="1156"/>
      <point x="719" y="1156" type="curve" smooth="yes"/>
      <point x="281" y="1156"/>
      <point x="79" y="730"/>
      <point x="79" y="416" type="curve" smooth="yes"/>
      <point x="79" y="159"/>
      <point x="180" y="-16"/>
    </contour>
    <contour>
      <point x="1059" y="1663" type="move" name="caron"/>
    </contour>
    <contour>
      <point x="470" y="1258" type="move" name="top"/>
    </contour>
  </outline>
</glyph>
<glyph name="g" format="1">
  <advance width="1149"/>
  <unicode hex="0067"/>
  <outline>
    <contour>
      <point x="371" y="-505" type="curve" smooth="yes"/>
      <point x="568" y="-505"/>
      <point x="834" y="-405"/>
      <point x="879" y="-89" type="curve" smooth="yes"/>
      <point x="1055" y="1156" type="line"/>
      <point x="898" y="1107" type="line"/>
      <point x="785" y="339" type="line"/>
      <point x="781" y="225" type="line"/>
      <point x="730" y="-92" type="line" smooth="yes"/>
      <point x="696" y="-284"/>
      <point x="583" y="-392"/>
      <point x="399" y="-392" type="curve" smooth="yes"/>
      <point x="299" y="-392"/>
      <point x="209" y="-369"/>
      <point x="153" y="-344" type="curve"/>
      <point x="115" y="-470" type="line"/>
      <point x="155" y="-487"/>
      <point x="283" y="-505"/>
    </contour>
    <contour>
      <point x="397" y="-16" type="curve" smooth="yes"/>
      <point x="625" y="-16"/>
      <point x="802" y="204"/>
      <point x="832" y="312" type="curve"/>
      <point x="815" y="407" type="line"/>
      <point x="771" y="312"/>
      <point x="611" y="100"/>
      <point x="423" y="100" type="curve" smooth="yes"/>
      <point x="301" y="100"/>
      <point x="233" y="211"/>
      <point x="233" y="434" type="curve" smooth="yes"/>
      <point x="233" y="690"/>
      <point x="385" y="1046"/>
      <point x="696" y="1046" type="curve" smooth="yes"/>
      <point x="787" y="1046"/>
      <point x="891" y="1018"/>
      <point x="938" y="979" type="curve"/>
      <point x="996" y="1099" type="line"/>
      <point x="940" y="1125"/>
      <point x="813" y="1156"/>
      <point x="719" y="1156" type="curve" smooth="yes"/>
      <point x="281" y="1156"/>
      <point x="79" y="730"/>
      <point x="79" y="416" type="curve" smooth="yes"/>
      <point x="79" y="159"/>
      <point x="180" y="-16"/>
    </contour>
    <contour>
      <point x="718" y="1258" type="move" name="top"/>
    </contour>
  </outline>
</glyph>
<glyph name="x" format="1">
  <advance width="949"/>
  <unicode hex="0078"/>
  <outline>
    <contour>
      <point x="117" y="3" type="line"/>
      <point x="477" y="521" type="line"/>
      <point x="532" y="565" type="line"/>
      <point x="966" y="1140" type="line"/>
      <point x="803" y="1140" type="line"/>
      <point x="458" y="650" type="line"/>
      <point x="411" y="614" type="line"/>
      <point x="-43" y="3" type="line"/>
    </contour>
    <contour>
      <point x="412" y="553" type="line"/>
      <point x="647" y="3" type="line"/>
      <point x="821" y="3" type="line"/>
      <point x="516" y="618" type="line"/>
      <point x="311" y="1140" type="line"/>
      <point x="133" y="1140" type="line"/>
    </contour>
    <contour>
      <point x="477" y="1258" type="move" name="top"/>
    </contour>
  </outline>
</glyph>
<glyph name="braceleft" format="1">
  <advance width="1024"/>
  <unicode hex="007B"/>
  <outline>
    <contour>
      <point x="305" y="-48" type="curve"/>
      <point x="303" y="-135"/>
      <point x="338" y="-159"/>
      <point x="434" y="-159" type="curve" smooth="yes"/>
      <point x="544" y="-159"/>
      <point x="617" y="-144"/>
      <point x="708" y="-123" type="curve"/>
      <point x="708" y="-123"/>
      <point x="715" y="-66"/>
      <point x="717" y="-55" type="curve"/>
      <point x="442" y="-55" type="line"/>
      <point x="536" y="576" type="line" smooth="yes"/>
      <point x="543" y="620"/>
      <point x="522" y="657"/>
      <point x="482" y="688" type="curve" smooth="yes"/>
      <point x="448" y="716"/>
      <point x="391" y="747"/>
      <point x="327" y="776" type="curve"/>
      <point x="349" y="781"/>
      <point x="455" y="827"/>
      <point x="489" y="844" type="curve" smooth="yes"/>
      <point x="554" y="876"/>
      <point x="589" y="915"/>
      <point x="597" y="969" type="curve" smooth="yes"/>
      <point x="693" y="1607" type="line"/>
      <point x="969" y="1607" type="line"/>
      <point x="969" y="1621"/>
      <point x="979" y="1674"/>
      <point x="979" y="1674" type="curve"/>
      <point x="979" y="1674"/>
      <point x="804" y="1710"/>
      <point x="715" y="1710" type="curve" smooth="yes"/>
      <point x="596" y="1710"/>
      <point x="559" y="1669"/>
      <point x="536" y="1519" type="curve" smooth="yes"/>
      <point x="454" y="968" type="line"/>
      <point x="449" y="939"/>
      <point x="426" y="912"/>
      <point x="375" y="890" type="curve" smooth="yes"/>
      <point x="323" y="866"/>
      <point x="245" y="843"/>
      <point x="176" y="825" type="curve"/>
      <point x="162" y="728" type="line"/>
      <point x="224" y="711"/>
      <point x="288" y="685"/>
      <point x="335" y="657" type="curve" smooth="yes"/>
      <point x="371" y="636"/>
      <point x="397" y="610"/>
      <point x="395" y="579" type="curve"/>
      <point x="395" y="579"/>
      <point x="305" y="-27"/>
    </contour>
  </outline>
</glyph>
<glyph name="plusminus" format="1">
  <advance width="1366"/>
  <unicode hex="00B1"/>
  <outline>
    <contour>
      <point x="172" y="30" type="line"/>
      <point x="1041" y="30" type="line"/>
      <point x="1054" y="145" type="line"/>
      <point x="185" y="145" type="line"/>
    </contour>
    <contour>
      <point x="572" y="295" type="line"/>
      <point x="710" y="295" type="line"/>
      <point x="739" y="536" type="line"/>
      <point x="741" y="577"/>
      <point x="752" y="676"/>
      <point x="754" y="717" type="curve"/>
      <point x="884" y="712" type="line"/>
      <point x="1140" y="712" type="line"/>
      <point x="1154" y="833" type="line"/>
      <point x="898" y="833" type="line"/>
      <point x="765" y="825" type="line"/>
      <point x="795" y="1005" type="line"/>
      <point x="821" y="1235" type="line"/>
      <point x="685" y="1235" type="line"/>
      <point x="658" y="1005" type="line"/>
      <point x="655" y="965"/>
      <point x="644" y="865"/>
      <point x="641" y="824" type="curve"/>
      <point x="482" y="833" type="line"/>
      <point x="257" y="833" type="line"/>
      <point x="243" y="712" type="line"/>
      <point x="468" y="712" type="line"/>
      <point x="629" y="717" type="line"/>
      <point x="601" y="536" type="line"/>
    </contour>
  </outline>
</glyph>
<glyph name="cedilla" format="1">
  <advance width="479"/>
  <unicode hex="00B8"/>
  <outline>
    <contour>
      <point x="265" y="22" type="line"/>
      <point x="277" y="-17"/>
      <point x="281" y="-88"/>
      <point x="281" y="-146" type="curve" smooth="yes"/>
      <point x="281" y="-289"/>
      <point x="211" y="-339"/>
      <point x="111" y="-339" type="curve" smooth="yes"/>
      <point x="68" y="-339"/>
      <point x="40" y="-330"/>
      <point x="23" y="-321" type="curve"/>
      <point x="3" y="-436" type="line"/>
      <point x="25" y="-452"/>
      <point x="96" y="-465"/>
      <point x="149" y="-465" type="curve" smooth="yes"/>
      <point x="292" y="-465"/>
      <point x="412" y="-396"/>
      <point x="412" y="-181" type="curve" smooth="yes"/>
      <point x="412" y="-88"/>
      <point x="393" y="-22"/>
      <point x="365" y="22" type="curve"/>
      <point x="324" y="26" type="line"/>
    </contour>
    <contour>
      <point x="316" y="-170" type="move" name="_btm"/>
    </contour>
  </outline>
</glyph>
<glyph name="questiondown" format="1">
  <advance width="1028"/>
  <unicode hex="00BF"/>
  <outline>
    <contour>
      <point x="231" y="104" type="curve" smooth="yes"/>
      <point x="231" y="133"/>
      <point x="234" y="173"/>
      <point x="243" y="202" type="curve"/>
      <point x="265" y="287"/>
      <point x="398" y="361"/>
      <point x="509" y="418" type="curve" smooth="yes"/>
      <point x="695" y="516"/>
      <point x="801" y="598"/>
      <point x="801" y="723" type="curve" smooth="yes"/>
      <point x="801" y="813"/>
      <point x="763" y="899"/>
      <point x="718" y="943" type="curve"/>
      <point x="704" y="944" type="line"/>
      <point x="606" y="906" type="line"/>
      <point x="622" y="867"/>
      <point x="654" y="796"/>
      <point x="654" y="737" type="curve" smooth="yes"/>
      <point x="654" y="476"/>
      <point x="92" y="509"/>
      <point x="92" y="85" type="curve" smooth="yes"/>
      <point x="92" y="-126"/>
      <point x="204" y="-366"/>
      <point x="592" y="-366" type="curve" smooth="yes"/>
      <point x="671" y="-366"/>
      <point x="766" y="-343"/>
      <point x="795" y="-313" type="curve"/>
      <point x="817" y="-204" type="line"/>
      <point x="749" y="-230"/>
      <point x="690" y="-243"/>
      <point x="602" y="-243" type="curve" smooth="yes"/>
      <point x="422" y="-243"/>
      <point x="231" y="-144"/>
    </contour>
    <contour>
      <point x="608" y="1210" type="curve" smooth="yes"/>
      <point x="681" y="1210"/>
      <point x="727" y="1267"/>
      <point x="728" y="1337" type="curve" smooth="yes"/>
      <point x="730" y="1395"/>
      <point x="690" y="1430"/>
      <point x="639" y="1430" type="curve" smooth="yes"/>
      <point x="566" y="1430"/>
      <point x="520" y="1385"/>
      <point x="519" y="1302" type="curve" smooth="yes"/>
      <point x="517" y="1250"/>
      <point x="543" y="1210"/>
    </contour>
  </outline>
</glyph>
<glyph name="Dcroat" format="1">
  <advance width="1376"/>
  <unicode hex="0110"/>
  <outline>
    <contour>
      <point x="53" y="733" type="line"/>
      <point x="792" y="733" type="line"/>
      <point x="804" y="833" type="line"/>
      <point x="65" y="833" type="line"/>
    </contour>
    <component base="D" yOffset="1"/>
  </outline>
</glyph>
<glyph name="Hbar" format="1">
  <advance width="1410"/>
  <unicode hex="0126"/>
  <outline>
    <contour>
      <point x="56" y="1036" type="line"/>
      <point x="1505" y="1036" type="line"/>
      <point x="1516" y="1151" type="line"/>
      <point x="67" y="1151" type="line"/>
    </contour>
    <contour>
      <point x="121" y="0" type="line"/>
      <point x="271" y="0" type="line"/>
      <point x="464" y="1530" type="line"/>
      <point x="314" y="1530" type="line"/>
    </contour>
    <contour>
      <point x="997" y="0" type="line"/>
      <point x="1148" y="0" type="line"/>
      <point x="1340" y="1530" type="line"/>
      <point x="1190" y="1530" type="line"/>
    </contour>
    <contour>
      <point x="284" y="610" type="line"/>
      <point x="1171" y="610" type="line"/>
      <point x="1183" y="725" type="line"/>
      <point x="295" y="725" type="line"/>
    </contour>
    <contour>
      <point x="825" y="-168" type="move" name="btm"/>
    </contour>
    <contour>
      <point x="884" y="1700" type="move" name="top"/>
    </contour>
  </outline>
</glyph>
<glyph name="Uogonek" format="1">
  <advance width="1360"/>
  <unicode hex="0172"/>
  <outline>
    <contour>
      <point x="463" y="-286" type="curve" smooth="yes"/>
      <point x="463" y="-345"/>
      <point x="514" y="-435"/>
      <point x="651" y="-435" type="curve" smooth="yes"/>
      <point x="767" y="-435"/>
      <point x="853" y="-380"/>
      <point x="897" y="-341" type="curve"/>
      <point x="858" y="-263" type="line"/>
      <point x="809" y="-301"/>
      <point x="754" y="-322"/>
      <point x="699" y="-322" type="curve" smooth="yes"/>
      <point x="648" y="-322"/>
      <point x="612" y="-294"/>
      <point x="612" y="-242" type="curve" smooth="yes"/>
      <point x="612" y="-148"/>
      <point x="870" y="46"/>
      <point x="931" y="108" type="curve"/>
      <point x="815" y="51" type="line"/>
      <point x="743" y="9" type="line"/>
      <point x="663" y="-40"/>
      <point x="463" y="-151"/>
    </contour>
    <component base="U"/>
  </outline>
</glyph>
<glyph name="florin" format="1">
  <advance width="1059"/>
  <unicode hex="0192"/>
  <outline>
    <contour>
      <point x="257" y="-356" type="line"/>
      <point x="407" y="-356" type="line"/>
      <point x="589" y="1033" type="line"/>
      <point x="890" y="1033" type="line"/>
      <point x="902" y="1152" type="line"/>
      <point x="605" y="1152" type="line"/>
      <point x="621" y="1271" type="line"/>
      <point x="651" y="1500"/>
      <point x="733" y="1559"/>
      <point x="863" y="1559" type="curve" smooth="yes"/>
      <point x="954" y="1559"/>
      <point x="993" y="1540"/>
      <point x="1009" y="1532" type="curve"/>
      <point x="1018" y="1661" type="line"/>
      <point x="1006" y="1667"/>
      <point x="956" y="1678"/>
      <point x="867" y="1678" type="curve" smooth="yes"/>
      <point x="693" y="1678"/>
      <point x="505" y="1534"/>
      <point x="467" y="1228" type="curve"/>
      <point x="457" y="1152" type="line"/>
      <point x="207" y="1112" type="line"/>
      <point x="196" y="1033" type="line"/>
      <point x="441" y="1033" type="line"/>
    </contour>
  </outline>
</glyph>
<glyph name="tilde" format="1">
  <advance width="815"/>
  <unicode hex="02DC"/>
  <outline>
    <contour>
      <point x="77" y="1416" type="line"/>
      <point x="114" y="1459"/>
      <point x="158" y="1524"/>
      <point x="233" y="1524" type="curve" smooth="yes"/>
      <point x="347" y="1522"/>
      <point x="368" y="1379"/>
      <point x="523" y="1379" type="curve" smooth="yes"/>
      <point x="629" y="1379"/>
      <point x="740" y="1458"/>
      <point x="773" y="1550" type="curve"/>
      <point x="707" y="1620" type="line"/>
      <point x="674" y="1575"/>
      <point x="632" y="1503"/>
      <point x="552" y="1503" type="curve" smooth="yes"/>
      <point x="453" y="1503"/>
      <point x="418" y="1647"/>
      <point x="272" y="1647" type="curve" smooth="yes"/>
      <point x="169" y="1647"/>
      <point x="51" y="1564"/>
      <point x="9" y="1481" type="curve"/>
    </contour>
    <contour>
      <point x="386" y="1255" type="move" name="_top"/>
    </contour>
  </outline>
</glyph>
<glyph name="hungarumlaut" format="1">
  <advance width="918"/>
  <unicode hex="02DD"/>
  <outline>
    <contour>
      <point x="121" y="1250" type="line"/>
      <point x="210" y="1321"/>
      <point x="343" y="1501"/>
      <point x="397" y="1618" type="curve"/>
      <point x="287" y="1706" type="line"/>
      <point x="49" y="1292" type="line"/>
    </contour>
    <contour>
      <point x="547" y="1250" type="line"/>
      <point x="628" y="1309"/>
      <point x="782" y="1510"/>
      <point x="832" y="1617" type="curve"/>
      <point x="722" y="1706" type="line"/>
      <point x="474" y="1292" type="line"/>
    </contour>
    <contour>
      <point x="333" y="1255" type="move" name="_top"/>
    </contour>
  </outline>
</glyph>
<glyph name="endash" format="1">
  <advance width="1535"/>
  <unicode hex="2013"/>
  <outline>
    <contour>
      <point x="220" y="712" type="line"/>
      <point x="1317" y="712" type="line"/>
      <point x="1340" y="833" type="line"/>
      <point x="243" y="833" type="line"/>
    </contour>
  </outline>
</glyph>
<glyph name="bullet" format="1">
  <advance width="858"/>
  <unicode hex="2022"/>
  <outline>
    <contour>
      <point x="419" y="557" type="curve" smooth="yes"/>
      <point x="537" y="557"/>
      <point x="613" y="665"/>
      <point x="613" y="758" type="curve" smooth="yes"/>
      <point x="613" y="835"/>
      <point x="555" y="891"/>
      <point x="477" y="891" type="curve" smooth="yes"/>
      <point x="367" y="891"/>
      <point x="282" y="786"/>
      <point x="282" y="693" type="curve" smooth="yes"/>
      <point x="282" y="618"/>
      <point x="341" y="557"/>
    </contour>
  </outline>
</glyph>
<glyph name="won" format="1">
  <advance width="1920"/>
  <unicode hex="20A9"/>
  <outline>
    <contour>
      <point x="81" y="761" type="line"/>
      <point x="94" y="862" type="line"/>
      <point x="324" y="862" type="line"/>
      <point x="224" y="1530" type="line"/>
      <point x="374" y="1530" type="line"/>
      <point x="463" y="862" type="line"/>
      <point x="821" y="862" type="line"/>
      <point x="998" y="1304" type="line"/>
      <point x="975" y="1530" type="line"/>
      <point x="1119" y="1530" type="line"/>
      <point x="1185" y="862" type="line"/>
      <point x="1522" y="862" type="line"/>
      <point x="1790" y="1530" type="line"/>
      <point x="1942" y="1530" type="line"/>
      <point x="1661" y="862" type="line"/>
      <point x="1905" y="862" type="line"/>
      <point x="1892" y="761" type="line"/>
      <point x="1619" y="761" type="line"/>
      <point x="1512" y="507" type="line"/>
      <point x="1860" y="507" type="line"/>
      <point x="1848" y="407" type="line"/>
      <point x="1470" y="407" type="line"/>
      <point x="1295" y="-10" type="line"/>
      <point x="1141" y="-10" type="line"/>
      <point x="1098" y="407" type="line"/>
      <point x="775" y="407" type="line"/>
      <point x="610" y="-10" type="line"/>
      <point x="455" y="-10" type="line"/>
      <point x="392" y="407" type="line"/>
      <point x="36" y="407" type="line"/>
      <point x="49" y="507" type="line"/>
      <point x="377" y="507" type="line"/>
      <point x="339" y="761" type="line"/>
    </contour>
    <contour>
      <point x="1034" y="1086" type="line"/>
      <point x="954" y="862" type="line"/>
      <point x="1051" y="862" type="line"/>
    </contour>
    <contour>
      <point x="1195" y="761" type="line"/>
      <point x="1220" y="507" type="line"/>
      <point x="1380" y="507" type="line"/>
      <point x="1482" y="761" type="line"/>
    </contour>
    <contour>
      <point x="915" y="761" type="line"/>
      <point x="814" y="507" type="line"/>
      <point x="1087" y="507" type="line"/>
      <point x="1061" y="761" type="line"/>
    </contour>
    <contour>
      <point x="476" y="761" type="line"/>
      <point x="510" y="507" type="line"/>
      <point x="679" y="507" type="line"/>
      <point x="781" y="761" type="line"/>
    </contour>
    <contour>
      <point x="1230" y="407" type="line"/>
      <point x="1248" y="166" type="line"/>
      <point x="1340" y="407" type="line"/>
    </contour>
    <contour>
      <point x="524" y="407" type="line"/>
      <point x="560" y="166" type="line"/>
      <point x="640" y="407" type="line"/>
    </contour>
  </outline>
</glyph>
<glyph name="integral" format="1">
  <advance width="1042"/>
  <unicode hex="222B"/>
  <outline>
    <contour>
      <point x="175" y="-292" type="curve"/>
      <point x="111" y="-395" type="line"/>
      <point x="178" y="-469"/>
      <point x="306" y="-518"/>
      <point x="434" y="-518" type="curve" smooth="yes"/>
      <point x="722" y="-518"/>
      <point x="827" y="-308"/>
      <point x="827" y="-28" type="curve" smooth="yes"/>
      <point x="827" y="396"/>
      <point x="406" y="805"/>
      <point x="406" y="1206" type="curve" smooth="yes"/>
      <point x="406" y="1416"/>
      <point x="479" y="1560"/>
      <point x="665" y="1560" type="curve" smooth="yes"/>
      <point x="770" y="1560"/>
      <point x="843" y="1524"/>
      <point x="877" y="1470" type="curve"/>
      <point x="964" y="1557" type="line"/>
      <point x="906" y="1647"/>
      <point x="800" y="1685"/>
      <point x="669" y="1685" type="curve" smooth="yes"/>
      <point x="387" y="1685"/>
      <point x="254" y="1484"/>
      <point x="254" y="1206" type="curve" smooth="yes"/>
      <point x="254" y="785"/>
      <point x="675" y="372"/>
      <point x="675" y="-29" type="curve" smooth="yes"/>
      <point x="675" y="-307"/>
      <point x="576" y="-393"/>
      <point x="414" y="-393" type="curve" smooth="yes"/>
      <point x="286" y="-393"/>
      <point x="205" y="-324"/>
    </contour>
  </outline>
</glyph>
<glyph name="caron.cap" format="1">
  <advance width="793"/>
  <outline>
    <contour>
      <point x="288" y="1614" type="line"/>
      <point x="423" y="1614" type="line"/>
      <point x="745" y="1933" type="line"/>
      <point x="682" y="2000" type="line"/>
      <point x="361" y="1730" type="line"/>
      <point x="117" y="2000" type="line"/>
      <point x="50" y="1933" type="line"/>
    </contour>
    <contour>
      <point x="366" y="1700" type="move" name="_top"/>
    </contour>
  </outline>
</glyph>
<glyph name="dotaccent.cap" format="1">
  <advance width="389"/>
  <outline>
    <contour>
      <point x="143" y="1707" type="curve" smooth="yes"/>
      <point x="204" y="1707"/>
      <point x="257" y="1759"/>
      <point x="260" y="1825" type="curve" smooth="yes"/>
      <point x="263" y="1881"/>
      <point x="228" y="1920"/>
      <point x="169" y="1920" type="curve" smooth="yes"/>
      <point x="118" y="1920"/>
      <point x="62" y="1870"/>
      <point x="59" y="1805" type="curve" smooth="yes"/>
      <point x="55" y="1748"/>
      <point x="94" y="1707"/>
    </contour>
    <contour>
      <point x="138" y="1700" type="move" name="_top"/>
    </contour>
  </outline>
</glyph>
<glyph name="ring.cap" format="1">
  <advance width="723"/>
  <outline>
    <contour>
      <point x="333" y="1483" type="curve" smooth="yes"/>
      <point x="506" y="1483"/>
      <point x="666" y="1563"/>
      <point x="666" y="1749" type="curve" smooth="yes"/>
      <point x="666" y="1906"/>
      <point x="562" y="2000"/>
      <point x="396" y="2000" type="curve" smooth="yes"/>
      <point x="238" y="2000"/>
      <point x="54" y="1917"/>
      <point x="54" y="1728" type="curve" smooth="yes"/>
      <point x="54" y="1573"/>
      <point x="155" y="1483"/>
    </contour>
    <contour>
      <point x="339" y="1565" type="curve" smooth="yes"/>
      <point x="232" y="1565"/>
      <point x="161" y="1633"/>
      <point x="161" y="1723" type="curve" smooth="yes"/>
      <point x="161" y="1873"/>
      <point x="281" y="1916"/>
      <point x="384" y="1916" type="curve" smooth="yes"/>
      <point x="490" y="1916"/>
      <point x="557" y="1854"/>
      <point x="557" y="1762" type="curve" smooth="yes"/>
      <point x="557" y="1604"/>
      <point x="451" y="1565"/>
    </contour>
    <contour>
      <point x="347" y="1700" type="move" name="_top"/>
    </contour>
  </outline>
</glyph>
<glyph name="two.numr" format="1">
  <advance width="1168"/>
  <outline>
    <contour>
      <point x="212" y="637" type="line"/>
      <point x="994" y="637" type="line"/>
      <point x="999" y="759" type="line"/>
      <point x="397" y="734" type="line"/>
      <point x="701" y="922"/>
      <point x="1013" y="1097"/>
      <point x="1013" y="1392" type="curve" smooth="yes"/>
      <point x="1013" y="1505"/>
      <point x="898" y="1650"/>
      <point x="658" y="1647" type="curve" smooth="yes"/>
      <point x="467" y="1644"/>
      <point x="313" y="1530"/>
      <point x="255" y="1450" type="curve"/>
      <point x="309" y="1378" type="line"/>
      <point x="397" y="1469"/>
      <point x="514" y="1530"/>
      <point x="644" y="1530" type="curve" smooth="yes"/>
      <point x="778" y="1530"/>
      <point x="867" y="1468"/>
      <point x="867" y="1352" type="curve" smooth="yes"/>
      <point x="867" y="1100"/>
      <point x="361" y="817"/>
      <point x="177" y="712" type="curve"/>
    </contour>
  </outline>
</glyph>
